<svg width="26" height="26" viewBox="0 0 26 26" fill="none" xmlns="http://www.w3.org/2000/svg">
<path d="M23.8333 9.22996V4.31163C23.8333 2.78413 23.14 2.16663 21.4175 2.16663H17.0408C15.3183 2.16663 14.625 2.78413 14.625 4.31163V9.21913C14.625 10.7575 15.3183 11.3641 17.0408 11.3641H21.4175C23.14 11.375 23.8333 10.7575 23.8333 9.22996Z" fill="#C7BBF3" fill-opacity="0.4" stroke="#C7BBF3" stroke-width="1.5" stroke-linecap="round" stroke-linejoin="round"/>
<path d="M23.8333 21.4175V17.0408C23.8333 15.3183 23.14 14.625 21.4175 14.625H17.0408C15.3183 14.625 14.625 15.3183 14.625 17.0408V21.4175C14.625 23.14 15.3183 23.8333 17.0408 23.8333H21.4175C23.14 23.8333 23.8333 23.14 23.8333 21.4175Z" fill="#C7BBF3" fill-opacity="0.5" stroke="#C7BBF3" stroke-width="1.5" stroke-linecap="round" stroke-linejoin="round"/>
<path d="M11.3753 9.22996V4.31163C11.3753 2.78413 10.682 2.16663 8.95949 2.16663H4.58283C2.86033 2.16663 2.16699 2.78413 2.16699 4.31163V9.21913C2.16699 10.7575 2.86033 11.3641 4.58283 11.3641H8.95949C10.682 11.375 11.3753 10.7575 11.3753 9.22996Z" fill="#C7BBF3" fill-opacity="0.5" stroke="#C7BBF3" stroke-width="1.5" stroke-linecap="round" stroke-linejoin="round"/>
<path d="M11.3753 21.4175V17.0408C11.3753 15.3183 10.682 14.625 8.95949 14.625H4.58283C2.86033 14.625 2.16699 15.3183 2.16699 17.0408V21.4175C2.16699 23.14 2.86033 23.8333 4.58283 23.8333H8.95949C10.682 23.8333 11.3753 23.14 11.3753 21.4175Z" fill="#C7BBF3" fill-opacity="0.4" stroke="#C7BBF3" stroke-width="1.5" stroke-linecap="round" stroke-linejoin="round"/>
</svg>
