<svg width="19" height="19" viewBox="0 0 19 19" fill="none" xmlns="http://www.w3.org/2000/svg">
<path d="M9.51572 2.30377C6.8953 2.30377 4.76572 4.43336 4.76572 7.05377V9.34169C4.76572 9.82461 4.55989 10.5609 4.31447 10.9725L3.40405 12.4846C2.84197 13.4188 3.22989 14.4559 4.25905 14.8042C7.67114 15.9442 11.3524 15.9442 14.7645 14.8042C15.7224 14.4875 16.142 13.3554 15.6195 12.4846L14.7091 10.9725C14.4716 10.5609 14.2657 9.82461 14.2657 9.34169V7.05377C14.2657 4.44127 12.1282 2.30377 9.51572 2.30377Z" stroke="#63605B" stroke-width="1.5" stroke-miterlimit="10" stroke-linecap="round"/>
<path d="M10.9804 2.53333C10.735 2.46208 10.4817 2.40666 10.2204 2.37499C9.46044 2.27999 8.7321 2.33541 8.05127 2.53333C8.28085 1.94749 8.85085 1.53583 9.51585 1.53583C10.1809 1.53583 10.7509 1.94749 10.9804 2.53333Z" stroke="#63605B" stroke-width="1.5" stroke-miterlimit="10" stroke-linecap="round" stroke-linejoin="round"/>
<path d="M11.8906 15.0892C11.8906 16.3954 10.8219 17.4642 9.51563 17.4642C8.86646 17.4642 8.26479 17.195 7.83729 16.7675C7.40979 16.34 7.14062 15.7383 7.14062 15.0892" stroke="#63605B" stroke-width="1.5" stroke-miterlimit="10"/>
</svg>
