<svg width="121" height="23" viewBox="0 0 121 23" fill="none" xmlns="http://www.w3.org/2000/svg">
<path d="M6.24004 18C5.12004 18 4.11204 17.864 3.21604 17.592C2.32004 17.304 1.46404 16.808 0.648039 16.104C0.440039 15.928 0.280039 15.728 0.168039 15.504C0.0560391 15.28 3.91304e-05 15.056 3.91304e-05 14.832C3.91304e-05 14.464 0.128039 14.144 0.384039 13.872C0.656039 13.584 0.992039 13.44 1.39204 13.44C1.69604 13.44 1.96804 13.536 2.20804 13.728C2.81604 14.224 3.41604 14.6 4.00804 14.856C4.61604 15.112 5.36004 15.24 6.24004 15.24C6.83204 15.24 7.37604 15.152 7.87204 14.976C8.36804 14.784 8.76804 14.536 9.07204 14.232C9.37604 13.912 9.52804 13.552 9.52804 13.152C9.52804 12.672 9.38404 12.264 9.09604 11.928C8.80804 11.592 8.36804 11.312 7.77604 11.088C7.18404 10.848 6.43204 10.664 5.52004 10.536C4.65604 10.408 3.89604 10.216 3.24004 9.96001C2.58404 9.68801 2.03204 9.35201 1.58404 8.95201C1.15204 8.53601 0.824039 8.05601 0.600039 7.51201C0.376039 6.95201 0.264039 6.32801 0.264039 5.64001C0.264039 4.60001 0.528039 3.71201 1.05604 2.97601C1.60004 2.24001 2.32804 1.68001 3.24004 1.29601C4.15204 0.912009 5.16004 0.720009 6.26404 0.720009C7.30404 0.720009 8.26404 0.880009 9.14404 1.20001C10.04 1.50401 10.768 1.89601 11.328 2.37601C11.792 2.74401 12.024 3.16801 12.024 3.64801C12.024 4.00001 11.888 4.32001 11.616 4.60801C11.344 4.89601 11.024 5.04001 10.656 5.04001C10.416 5.04001 10.2 4.96801 10.008 4.82401C9.75204 4.60001 9.40804 4.39201 8.97604 4.20001C8.54404 3.99201 8.08804 3.82401 7.60804 3.69601C7.12804 3.55201 6.68004 3.48001 6.26404 3.48001C5.57604 3.48001 4.99204 3.56801 4.51204 3.74401C4.04804 3.92001 3.69604 4.16001 3.45604 4.46401C3.21604 4.76801 3.09604 5.12001 3.09604 5.52001C3.09604 6.00001 3.23204 6.40001 3.50404 6.72001C3.79204 7.02401 4.20004 7.27201 4.72804 7.46401C5.25604 7.64001 5.88804 7.80001 6.62404 7.94401C7.58404 8.12001 8.42404 8.32801 9.14404 8.56801C9.88004 8.80801 10.488 9.12001 10.968 9.50401C11.448 9.87201 11.808 10.344 12.048 10.92C12.288 11.48 12.408 12.168 12.408 12.984C12.408 14.024 12.12 14.92 11.544 15.672C10.968 16.424 10.208 17 9.26404 17.4C8.33604 17.8 7.32804 18 6.24004 18ZM21.7844 4.68001C22.9684 4.68001 23.8644 4.92801 24.4724 5.42401C25.0964 5.92001 25.5204 6.58401 25.7444 7.41601C25.9844 8.23201 26.1044 9.14401 26.1044 10.152V16.296C26.1044 16.712 25.9684 17.064 25.6964 17.352C25.4244 17.624 25.0804 17.76 24.6644 17.76C24.2484 17.76 23.9044 17.624 23.6324 17.352C23.3604 17.064 23.2244 16.712 23.2244 16.296V10.152C23.2244 9.62401 23.1524 9.15201 23.0084 8.73601C22.8804 8.30401 22.6404 7.96001 22.2884 7.70401C21.9364 7.44801 21.4324 7.32001 20.7764 7.32001C20.1364 7.32001 19.5924 7.44801 19.1444 7.70401C18.7124 7.96001 18.3764 8.30401 18.1364 8.73601C17.9124 9.15201 17.8004 9.62401 17.8004 10.152V16.296C17.8004 16.712 17.6644 17.064 17.3924 17.352C17.1204 17.624 16.7764 17.76 16.3604 17.76C15.9444 17.76 15.6004 17.624 15.3284 17.352C15.0564 17.064 14.9204 16.712 14.9204 16.296V6.38401C14.9204 5.96801 15.0564 5.62401 15.3284 5.35201C15.6004 5.06401 15.9444 4.92001 16.3604 4.92001C16.7764 4.92001 17.1204 5.06401 17.3924 5.35201C17.6644 5.62401 17.8004 5.96801 17.8004 6.38401V7.41601L17.4404 7.34401C17.5844 7.07201 17.7924 6.78401 18.0644 6.48001C18.3364 6.16001 18.6564 5.86401 19.0244 5.59201C19.3924 5.32001 19.8084 5.10401 20.2724 4.94401C20.7364 4.76801 21.2404 4.68001 21.7844 4.68001ZM35.2652 18C33.9052 18 32.7212 17.72 31.7132 17.16C30.7212 16.584 29.9532 15.808 29.4092 14.832C28.8812 13.856 28.6172 12.752 28.6172 11.52C28.6172 10.08 28.9052 8.85601 29.4812 7.84801C30.0732 6.82401 30.8412 6.04001 31.7852 5.49601C32.7292 4.95201 33.7292 4.68001 34.7852 4.68001C35.6012 4.68001 36.3692 4.84801 37.0892 5.18401C37.8252 5.52001 38.4732 5.98401 39.0332 6.57601C39.5932 7.15201 40.0332 7.82401 40.3532 8.59201C40.6892 9.36001 40.8572 10.176 40.8572 11.04C40.8412 11.424 40.6892 11.736 40.4012 11.976C40.1132 12.216 39.7772 12.336 39.3932 12.336H30.2252L29.5052 9.93601H38.3132L37.7852 10.416V9.76801C37.7532 9.30401 37.5852 8.88801 37.2812 8.52001C36.9932 8.15201 36.6252 7.86401 36.1772 7.65601C35.7452 7.43201 35.2812 7.32001 34.7852 7.32001C34.3052 7.32001 33.8572 7.38401 33.4412 7.51201C33.0252 7.64001 32.6652 7.85601 32.3612 8.16001C32.0572 8.46401 31.8172 8.87201 31.6412 9.38401C31.4652 9.89601 31.3772 10.544 31.3772 11.328C31.3772 12.192 31.5532 12.928 31.9052 13.536C32.2732 14.128 32.7372 14.584 33.2972 14.904C33.8732 15.208 34.4812 15.36 35.1212 15.36C35.7132 15.36 36.1852 15.312 36.5372 15.216C36.8892 15.12 37.1692 15.008 37.3772 14.88C37.6012 14.736 37.8012 14.616 37.9772 14.52C38.2652 14.376 38.5372 14.304 38.7932 14.304C39.1452 14.304 39.4332 14.424 39.6572 14.664C39.8972 14.904 40.0172 15.184 40.0172 15.504C40.0172 15.936 39.7932 16.328 39.3452 16.68C38.9292 17.032 38.3452 17.344 37.5932 17.616C36.8412 17.872 36.0652 18 35.2652 18ZM50.1175 4.68001C51.2695 4.68001 52.1415 4.92801 52.7335 5.42401C53.3415 5.92001 53.7575 6.58401 53.9815 7.41601C54.2055 8.23201 54.3175 9.14401 54.3175 10.152V16.296C54.3175 16.712 54.1815 17.064 53.9095 17.352C53.6375 17.624 53.2935 17.76 52.8775 17.76C52.4615 17.76 52.1175 17.624 51.8455 17.352C51.5735 17.064 51.4375 16.712 51.4375 16.296V10.152C51.4375 9.62401 51.3735 9.15201 51.2455 8.73601C51.1175 8.30401 50.8855 7.96001 50.5495 7.70401C50.2135 7.44801 49.7335 7.32001 49.1095 7.32001C48.5015 7.32001 47.9815 7.44801 47.5495 7.70401C47.1175 7.96001 46.7895 8.30401 46.5655 8.73601C46.3575 9.15201 46.2535 9.62401 46.2535 10.152V16.296C46.2535 16.712 46.1175 17.064 45.8455 17.352C45.5735 17.624 45.2295 17.76 44.8135 17.76C44.3975 17.76 44.0535 17.624 43.7815 17.352C43.5095 17.064 43.3735 16.712 43.3735 16.296V1.46401C43.3735 1.04801 43.5095 0.704009 43.7815 0.432008C44.0535 0.144009 44.3975 9.53674e-06 44.8135 9.53674e-06C45.2295 9.53674e-06 45.5735 0.144009 45.8455 0.432008C46.1175 0.704009 46.2535 1.04801 46.2535 1.46401V7.41601L45.8935 7.34401C46.0375 7.07201 46.2375 6.78401 46.4935 6.48001C46.7495 6.16001 47.0615 5.86401 47.4295 5.59201C47.7975 5.32001 48.2055 5.10401 48.6535 4.94401C49.1015 4.76801 49.5895 4.68001 50.1175 4.68001ZM69.5884 0.912009C69.9884 0.912009 70.3324 1.04801 70.6204 1.32001C70.9244 1.57601 71.0764 1.90401 71.0764 2.30401C71.0764 2.51201 71.0284 2.72801 70.9324 2.95201L65.0044 16.824C64.8604 17.144 64.6524 17.384 64.3804 17.544C64.1244 17.688 63.8604 17.76 63.5884 17.76C63.3324 17.744 63.0844 17.664 62.8444 17.52C62.6044 17.36 62.4204 17.136 62.2924 16.848L56.3644 2.92801C56.3164 2.83201 56.2844 2.73601 56.2684 2.64001C56.2524 2.52801 56.2444 2.42401 56.2444 2.32801C56.2444 1.86401 56.4124 1.51201 56.7484 1.27201C57.0844 1.01601 57.4044 0.88801 57.7084 0.88801C58.3164 0.88801 58.7564 1.20001 59.0284 1.82401L64.2844 14.184L63.4444 14.208L68.2684 1.82401C68.5404 1.21601 68.9804 0.912009 69.5884 0.912009ZM76.062 16.296C76.062 16.712 75.926 17.064 75.654 17.352C75.382 17.624 75.038 17.76 74.622 17.76C74.206 17.76 73.862 17.624 73.59 17.352C73.318 17.064 73.182 16.712 73.182 16.296V6.38401C73.182 5.96801 73.318 5.62401 73.59 5.35201C73.862 5.06401 74.206 4.92001 74.622 4.92001C75.038 4.92001 75.382 5.06401 75.654 5.35201C75.926 5.62401 76.062 5.96801 76.062 6.38401V16.296ZM74.598 3.36001C74.054 3.36001 73.67 3.27201 73.446 3.09601C73.222 2.92001 73.11 2.60801 73.11 2.16001V1.70401C73.11 1.24001 73.23 0.92801 73.47 0.76801C73.726 0.592009 74.11 0.504009 74.622 0.504009C75.182 0.504009 75.574 0.592009 75.798 0.76801C76.022 0.944009 76.134 1.25601 76.134 1.70401V2.16001C76.134 2.62401 76.014 2.94401 75.774 3.12001C75.534 3.28001 75.142 3.36001 74.598 3.36001ZM89.5339 9.53674e-06C89.9499 9.53674e-06 90.2939 0.136009 90.5659 0.408009C90.8379 0.680009 90.9739 1.03201 90.9739 1.46401V16.296C90.9739 16.712 90.8379 17.064 90.5659 17.352C90.2939 17.624 89.9499 17.76 89.5339 17.76C89.1179 17.76 88.7739 17.624 88.5019 17.352C88.2299 17.064 88.0939 16.712 88.0939 16.296V15.12L88.6219 15.336C88.6219 15.544 88.5099 15.8 88.2859 16.104C88.0619 16.392 87.7579 16.68 87.3739 16.968C86.9899 17.256 86.5339 17.504 86.0059 17.712C85.4939 17.904 84.9339 18 84.3259 18C83.2219 18 82.2219 17.72 81.3259 17.16C80.4299 16.584 79.7179 15.8 79.1899 14.808C78.6779 13.8 78.4219 12.648 78.4219 11.352C78.4219 10.04 78.6779 8.88801 79.1899 7.89601C79.7179 6.88801 80.4219 6.10401 81.3019 5.54401C82.1819 4.96801 83.1579 4.68001 84.2299 4.68001C84.9179 4.68001 85.5499 4.78401 86.1259 4.99201C86.7019 5.20001 87.1979 5.46401 87.6139 5.78401C88.0459 6.10401 88.3739 6.43201 88.5979 6.76801C88.8379 7.08801 88.9579 7.36001 88.9579 7.58401L88.0939 7.89601V1.46401C88.0939 1.04801 88.2299 0.704009 88.5019 0.432008C88.7739 0.144009 89.1179 9.53674e-06 89.5339 9.53674e-06ZM84.6859 15.36C85.3899 15.36 86.0059 15.184 86.5339 14.832C87.0619 14.48 87.4699 14 87.7579 13.392C88.0619 12.784 88.2139 12.104 88.2139 11.352C88.2139 10.584 88.0619 9.89601 87.7579 9.28801C87.4699 8.68001 87.0619 8.20001 86.5339 7.84801C86.0059 7.49601 85.3899 7.32001 84.6859 7.32001C83.9979 7.32001 83.3899 7.49601 82.8619 7.84801C82.3339 8.20001 81.9179 8.68001 81.6139 9.28801C81.3259 9.89601 81.1819 10.584 81.1819 11.352C81.1819 12.104 81.3259 12.784 81.6139 13.392C81.9179 14 82.3339 14.48 82.8619 14.832C83.3899 15.184 83.9979 15.36 84.6859 15.36ZM103.62 4.92001C104.036 4.92001 104.38 5.06401 104.652 5.35201C104.924 5.62401 105.06 5.96801 105.06 6.38401V16.584C105.06 18.056 104.78 19.224 104.22 20.088C103.676 20.968 102.94 21.6 102.012 21.984C101.084 22.368 100.044 22.56 98.8922 22.56C98.3802 22.56 97.8362 22.52 97.2602 22.44C96.6842 22.36 96.2122 22.24 95.8442 22.08C95.3642 21.872 95.0282 21.608 94.8362 21.288C94.6602 20.984 94.6282 20.656 94.7402 20.304C94.8842 19.84 95.1162 19.52 95.4362 19.344C95.7562 19.184 96.0922 19.168 96.4442 19.296C96.7002 19.376 97.0362 19.496 97.4522 19.656C97.8682 19.832 98.3482 19.92 98.8922 19.92C99.6282 19.92 100.236 19.816 100.716 19.608C101.212 19.416 101.58 19.08 101.82 18.6C102.076 18.136 102.204 17.496 102.204 16.68V15.072L102.708 15.648C102.436 16.176 102.092 16.616 101.676 16.968C101.276 17.304 100.796 17.56 100.236 17.736C99.6762 17.912 99.0362 18 98.3162 18C97.4682 18 96.7242 17.808 96.0842 17.424C95.4602 17.024 94.9722 16.48 94.6202 15.792C94.2682 15.088 94.0922 14.288 94.0922 13.392V6.38401C94.0922 5.96801 94.2282 5.62401 94.5002 5.35201C94.7722 5.06401 95.1162 4.92001 95.5322 4.92001C95.9482 4.92001 96.2922 5.06401 96.5642 5.35201C96.8362 5.62401 96.9722 5.96801 96.9722 6.38401V12.528C96.9722 13.568 97.1962 14.304 97.6442 14.736C98.1082 15.152 98.7482 15.36 99.5642 15.36C100.124 15.36 100.596 15.256 100.98 15.048C101.364 14.824 101.66 14.504 101.868 14.088C102.076 13.656 102.18 13.136 102.18 12.528V6.38401C102.18 5.96801 102.316 5.62401 102.588 5.35201C102.86 5.06401 103.204 4.92001 103.62 4.92001ZM118.69 4.68001C119.106 4.68001 119.45 4.81601 119.722 5.08801C119.994 5.36001 120.13 5.71201 120.13 6.14401V16.296C120.13 16.712 119.994 17.064 119.722 17.352C119.45 17.624 119.106 17.76 118.69 17.76C118.274 17.76 117.93 17.624 117.658 17.352C117.386 17.064 117.25 16.712 117.25 16.296V15.12L117.778 15.336C117.778 15.544 117.666 15.8 117.442 16.104C117.218 16.392 116.914 16.68 116.53 16.968C116.146 17.256 115.69 17.504 115.162 17.712C114.65 17.904 114.09 18 113.482 18C112.378 18 111.378 17.72 110.482 17.16C109.586 16.584 108.874 15.8 108.346 14.808C107.834 13.8 107.578 12.648 107.578 11.352C107.578 10.04 107.834 8.88801 108.346 7.89601C108.874 6.88801 109.578 6.10401 110.458 5.54401C111.338 4.96801 112.314 4.68001 113.386 4.68001C114.074 4.68001 114.706 4.78401 115.282 4.99201C115.858 5.20001 116.354 5.46401 116.77 5.78401C117.202 6.10401 117.53 6.43201 117.754 6.76801C117.994 7.08801 118.114 7.36001 118.114 7.58401L117.25 7.89601V6.14401C117.25 5.72801 117.386 5.38401 117.658 5.11201C117.93 4.82401 118.274 4.68001 118.69 4.68001ZM113.842 15.36C114.546 15.36 115.162 15.184 115.69 14.832C116.218 14.48 116.626 14 116.914 13.392C117.218 12.784 117.37 12.104 117.37 11.352C117.37 10.584 117.218 9.89601 116.914 9.28801C116.626 8.68001 116.218 8.20001 115.69 7.84801C115.162 7.49601 114.546 7.32001 113.842 7.32001C113.154 7.32001 112.546 7.49601 112.018 7.84801C111.49 8.20001 111.074 8.68001 110.77 9.28801C110.482 9.89601 110.338 10.584 110.338 11.352C110.338 12.104 110.482 12.784 110.77 13.392C111.074 14 111.49 14.48 112.018 14.832C112.546 15.184 113.154 15.36 113.842 15.36Z" fill="url(#paint0_linear_499_15785)"/>
<defs>
<linearGradient id="paint0_linear_499_15785" x1="-0.959961" y1="8.76001" x2="122.04" y2="8.76001" gradientUnits="userSpaceOnUse">
<stop stop-color="#A891FF"/>
<stop offset="1" stop-color="#4C2FB3"/>
</linearGradient>
</defs>
</svg>
